<?xml version="1.0" encoding="UTF-8"?>
<svg width="31px" height="31px" viewBox="0 0 31 31" version="1.1" xmlns="http://www.w3.org/2000/svg" xmlns:xlink="http://www.w3.org/1999/xlink">
    <!-- Generator: Sketch 44.1 (41455) - http://www.bohemiancoding.com/sketch -->
    <title>files-32px-outline-3_pdf</title>
    <desc>Created with Sketch.</desc>
    <defs></defs>
    <g id="Page-1" stroke="none" stroke-width="1" fill="none" fill-rule="evenodd">
        <g id="BraveWings-DesktopHD" transform="translate(-582.000000, -690.000000)">
            <g id="Group-2" transform="translate(551.000000, 669.000000)">
                <g id="Group-3" transform="translate(31.000000, 21.000000)">
                    <g id="files-32px-outline-3_pdf">
                        <polyline id="Shape" stroke="#FFFFFF" points="19.5 0.5 19.5 8.5 27.5 8.5"></polyline>
                        <polyline id="Shape" stroke="#FFFFFF" stroke-linecap="square" points="27.5 12.5 27.5 8.5 19.5 0.5 3.5 0.5 3.5 12.5"></polyline>
                        <polyline id="Shape" stroke="#FFFFFF" stroke-linecap="square" points="3.5 26.5 3.5 30.5 27.5 30.5 27.5 26.5"></polyline>
                        <path d="M12.643,18.605 C12.643,19.243 12.455,19.736 12.079,20.084 C11.703,20.432 11.168,20.605 10.475,20.605 L10.041,20.605 L10.041,22.5 L8.498,22.5 L8.498,16.789 L10.475,16.789 C11.196,16.789 11.738,16.946 12.1,17.262 C12.462,17.578 12.643,18.024 12.643,18.605 Z M10.041,19.348 L10.322,19.348 C10.554,19.348 10.738,19.283 10.875,19.153 C11.012,19.023 11.08,18.843 11.08,18.614 C11.08,18.228 10.867,18.036 10.439,18.036 L10.041,18.036 L10.041,19.348 L10.041,19.348 Z" id="Shape" fill="#FFFFFF" fill-rule="nonzero"></path>
                        <path d="M18.4,19.523 C18.4,20.476 18.138,21.211 17.613,21.726 C17.088,22.241 16.351,22.5 15.4,22.5 L13.552,22.5 L13.552,16.789 L15.529,16.789 C16.446,16.789 17.154,17.023 17.652,17.492 C18.15,17.961 18.4,18.638 18.4,19.523 Z M16.799,19.578 C16.799,19.055 16.695,18.667 16.488,18.414 C16.281,18.161 15.967,18.035 15.545,18.035 L15.096,18.035 L15.096,21.234 L15.44,21.234 C15.909,21.234 16.252,21.098 16.471,20.826 C16.69,20.554 16.799,20.138 16.799,19.578 Z" id="Shape" fill="#FFFFFF" fill-rule="nonzero"></path>
                        <polygon id="Shape" fill="#FFFFFF" fill-rule="nonzero" points="20.943 22.5 19.423 22.5 19.423 16.789 22.798 16.789 22.798 18.027 20.943 18.027 20.943 19.117 22.654 19.117 22.654 20.355 20.943 20.355"></polygon>
                        <rect id="Rectangle-path" stroke="#FFFFFF" stroke-linecap="square" x="0.5" y="12.5" width="30" height="14"></rect>
                    </g>
                </g>
            </g>
        </g>
    </g>
</svg>