<?xml version="1.0" encoding="UTF-8"?>
<svg width="182px" height="25px" viewBox="0 0 182 25" version="1.1" xmlns="http://www.w3.org/2000/svg" xmlns:xlink="http://www.w3.org/1999/xlink">
    <!-- Generator: Sketch 44.1 (41455) - http://www.bohemiancoding.com/sketch -->
    <title>Logo</title>
    <desc>Created with Sketch.</desc>
    <defs></defs>
    <g id="Page-1" stroke="none" stroke-width="1" fill="none" fill-rule="evenodd">
        <g id="BraveWings-DesktopHD" transform="translate(-49.000000, -54.000000)">
            <g id="Logo" transform="translate(49.000000, 54.000000)">
                <path d="M2.23142676,4.74309549 L19.9333784,0 L32.0853712,8.35938469 C35.7296846,10.8652151 39.740648,11.7713308 43.479543,11.2482124 C38.9886653,20.2720041 28.6932756,22.944812 20.3338909,17.1951808 L2.23142676,4.74309549 Z M33.9735016,6.54365021 L47.4356256,2.9367024 L44.5864988,8.85331118 C41.112666,9.34256697 37.4052981,8.61860852 33.9735016,6.54365021 Z M9.84700253,13.0090662 L9.84700253,13.0090662 L18.1806984,18.8451054 C20.868686,20.7273974 23.7119744,21.9055813 26.5494245,22.424029 C21.4898891,25.9165447 14.7418958,25.9714254 8.9128626,21.8892339 L0,15.6468438 L9.84700253,13.0090662 L9.84700253,13.0090662 Z" id="Fill-133" fill="#21BD89"></path>
                <path d="M63.0280228,5.85326476 L67.8334336,5.85326476 C68.7985419,5.85326476 69.5759786,5.98395454 70.1657669,6.24533803 C70.7555553,6.50672152 71.2146451,6.82841945 71.54305,7.21044147 C71.8714549,7.59246349 72.0892712,8.00463896 72.1965054,8.44698024 C72.3037397,8.88932153 72.357356,9.29144394 72.357356,9.65335954 C72.357356,10.0957008 72.2836336,10.4944722 72.1361865,10.8496857 C71.9887394,11.2048991 71.7977312,11.513193 71.5631563,11.7745765 C71.3285814,12.03596 71.0638508,12.2504252 70.7689566,12.4179788 C70.4740624,12.5855323 70.1791726,12.702818 69.8842784,12.7698394 C70.1121512,12.7698394 70.3735308,12.8368598 70.668425,12.9709026 C70.9633192,13.1049454 71.2448049,13.3026556 71.5128905,13.5640391 C71.7809761,13.8254226 72.0088455,14.1538225 72.1965054,14.5492488 C72.3841654,14.9446752 72.4779939,15.4104669 72.4779939,15.9466382 C72.4779939,16.3085538 72.4176756,16.7207293 72.297037,17.183177 C72.1763985,17.6456247 71.9485291,18.0812573 71.6134221,18.4900879 C71.2783151,18.8989185 70.8091722,19.2407225 70.2059796,19.5155103 C69.6027869,19.7902981 68.8186482,19.9276899 67.85354,19.9276899 L63.0280228,19.9276899 L63.0280228,5.85326476 Z M65.3402498,13.8354744 L65.3402498,17.8567388 L67.9540716,17.8567388 C68.4232214,17.8567388 68.8018867,17.7930694 69.0900787,17.6657287 C69.3782708,17.538388 69.6027891,17.374188 69.7636405,17.1731238 C69.9244919,16.9720596 70.0317245,16.7542433 70.0853417,16.5196684 C70.1389588,16.2850934 70.1657669,16.0672771 70.1657669,15.8662129 C70.1657669,15.6919573 70.1356078,15.487545 70.0752885,15.2529701 C70.0149692,15.0183952 69.9010345,14.7972279 69.733481,14.5894615 C69.5659275,14.3816951 69.3414092,14.2040911 69.0599193,14.056644 C68.7784293,13.9091969 68.4165192,13.8354744 67.9741779,13.8354744 L65.3402498,13.8354744 Z M67.8334336,11.7645233 C68.3025835,11.7645233 68.6812488,11.6975029 68.9694408,11.5634601 C69.2576329,11.4294173 69.4821512,11.2652173 69.6430026,11.0708552 C69.803854,10.8764931 69.9110866,10.6687299 69.9647037,10.4475592 C70.0183208,10.2263886 70.045129,10.0286784 70.045129,9.85442276 C70.045129,9.6801671 70.0183208,9.48245691 69.9647037,9.26128627 C69.9110866,9.04011563 69.803854,8.82900136 69.6430026,8.62793714 C69.4821512,8.42687292 69.2576329,8.25932191 68.9694408,8.1252791 C68.6812488,7.99123629 68.3025835,7.92421588 67.8334336,7.92421588 L65.3402498,7.92421588 L65.3402498,11.7645233 L67.8334336,11.7645233 Z M81.7211572,12.5888825 C81.5469015,12.5486696 81.4028077,12.5218615 81.2888713,12.5084572 C81.1749349,12.4950529 81.030841,12.4883509 80.8565854,12.4883509 C79.9182857,12.4883509 79.2011674,12.7597835 78.705209,13.3026569 C78.2092505,13.8455303 77.9612751,14.7067425 77.9612751,15.8863192 L77.9612751,19.9276899 L75.769686,19.9276899 L75.769686,10.558144 L77.9612751,10.558144 L77.9612751,12.0661181 C78.0685093,11.8516496 78.2193052,11.6472374 78.4136673,11.4528753 C78.6080294,11.2585132 78.8358987,11.0842602 79.0972822,10.930111 C79.3586657,10.7759617 79.6401514,10.655325 79.9417477,10.5681972 C80.2433441,10.4810693 80.5482869,10.4375061 80.8565854,10.4375061 C81.2050967,10.4375061 81.4932844,10.4844204 81.7211572,10.5782503 L81.7211572,12.5888825 Z M92.9749526,10.558144 L92.9749526,19.9276899 L90.7833636,19.9276899 L90.7833636,18.6609916 C90.4884694,19.1301415 90.0695919,19.4987537 89.5267185,19.7668393 C88.9838451,20.0349249 88.4376288,20.1689657 87.8880533,20.1689657 C87.1776263,20.1689657 86.5275285,20.038276 85.9377401,19.7768925 C85.3479517,19.515509 84.8419477,19.1569498 84.4197128,18.7012043 C83.9974779,18.2454587 83.669078,17.7226996 83.434503,17.1329112 C83.1999281,16.5431228 83.0826424,15.913131 83.0826424,15.2429169 C83.0826424,14.5861072 83.1999281,13.9594664 83.434503,13.3629759 C83.669078,12.7664854 83.9974779,12.2403752 84.4197128,11.7846296 C84.8419477,11.3288841 85.3479517,10.9703249 85.9377401,10.7089414 C86.5275285,10.4475579 87.1776263,10.3168682 87.8880533,10.3168682 C88.4376288,10.3168682 88.9838451,10.450909 89.5267185,10.7189946 C90.0695919,10.9870802 90.4884694,11.3556924 90.7833636,11.8248423 L90.7833636,10.558144 L92.9749526,10.558144 Z M88.0086912,18.2186525 C88.4242239,18.2186525 88.8028892,18.1382281 89.1446984,17.9773767 C89.4865075,17.8165253 89.7780463,17.60206 90.0193234,17.3339744 C90.2606004,17.0658888 90.4482575,16.7508929 90.5823004,16.3889773 C90.7163432,16.0270617 90.7833636,15.6450454 90.7833636,15.2429169 C90.7833636,14.8407885 90.7163432,14.4587722 90.5823004,14.0968566 C90.4482575,13.734941 90.2606004,13.4199451 90.0193234,13.1518595 C89.7780463,12.8837739 89.4865075,12.6693086 89.1446984,12.5084572 C88.8028892,12.3476058 88.4242239,12.2671813 88.0086912,12.2671813 C87.5931585,12.2671813 87.2178442,12.3476058 86.8827372,12.5084572 C86.5476301,12.6693086 86.2594424,12.8837739 86.0181654,13.1518595 C85.7768883,13.4199451 85.5925822,13.734941 85.4652415,14.0968566 C85.3379008,14.4587722 85.2742315,14.8407885 85.2742315,15.2429169 C85.2742315,15.6450454 85.3379008,16.0270617 85.4652415,16.3889773 C85.5925822,16.7508929 85.7768883,17.0658888 86.0181654,17.3339744 C86.2594424,17.60206 86.5476301,17.8165253 86.8827372,17.9773767 C87.2178442,18.1382281 87.5931585,18.2186525 88.0086912,18.2186525 Z M97.533343,10.558144 L100.106952,16.7911037 L102.720774,10.558144 L105.073214,10.558144 L100.83078,19.9276899 L99.3630182,19.9276899 L95.1809033,10.558144 L97.533343,10.558144 Z M110.677133,11.9655865 C109.993514,11.9655865 109.423841,12.1599457 108.968095,12.5486699 C108.51235,12.937394 108.28448,13.5137695 108.28448,14.2778135 L112.949147,14.2778135 C112.949147,13.5539823 112.738033,12.9876599 112.315798,12.5788293 C111.893563,12.1699988 111.347347,11.9655865 110.677133,11.9655865 Z M108.28448,15.9064256 C108.311289,16.2415326 108.371607,16.5565285 108.465437,16.8514227 C108.559267,17.1463169 108.703361,17.4043454 108.897723,17.6255161 C109.092085,17.8466867 109.343412,18.0209397 109.65171,18.1482804 C109.960009,18.2756211 110.342025,18.3392905 110.797771,18.3392905 C111.427772,18.3392905 111.883511,18.2186537 112.165,17.9773767 C112.44649,17.7360996 112.654254,17.4479119 112.788296,17.1128049 L114.999992,17.1128049 C114.93297,17.5149333 114.788877,17.9003006 114.567706,18.2689183 C114.346535,18.6375361 114.054996,18.962585 113.693081,19.2440749 C113.331165,19.5255649 112.908937,19.7500832 112.426383,19.9176367 C111.943828,20.0851902 111.400963,20.1689657 110.797771,20.1689657 C110.006918,20.1689657 109.319959,20.041627 108.736873,19.7869456 C108.153786,19.5322643 107.667888,19.1837582 107.279164,18.7414169 C106.89044,18.2990756 106.598901,17.7763165 106.404539,17.1731238 C106.210177,16.5699312 106.112998,15.9265353 106.112998,15.2429169 C106.112998,14.5458943 106.216879,13.8957964 106.424646,13.2926038 C106.632412,12.6894111 106.930653,12.166652 107.319377,11.7243107 C107.708101,11.2819694 108.190648,10.9368143 108.767032,10.6888351 C109.343416,10.4408559 110.000216,10.3168682 110.737452,10.3168682 C111.340644,10.3168682 111.906967,10.4241008 112.436436,10.6385693 C112.965905,10.8530378 113.428346,11.1512786 113.823772,11.5333006 C114.219198,11.9153226 114.527492,12.3610083 114.748663,12.870371 C114.969833,13.3797337 115.080417,13.936003 115.080417,14.5391957 C115.080417,14.7000471 115.077066,14.8910552 115.070364,15.1122259 C115.063662,15.3333965 115.033503,15.5981271 114.979885,15.9064256 L108.28448,15.9064256 Z M132.340258,9.8946354 L129.083034,19.9276899 L127.414209,19.9276899 L122.548479,5.85326476 L124.981344,5.85326476 L128.218462,15.8863192 L131.475686,5.85326476 L133.184723,5.85326476 L136.441948,15.8863192 L139.679065,5.85326476 L142.11193,5.85326476 L137.2462,19.9276899 L135.577376,19.9276899 L132.340258,9.8946354 Z M144.398306,10.558144 L146.589895,10.558144 L146.589895,19.9276899 L144.398306,19.9276899 L144.398306,10.558144 Z M143.875542,7.14006934 C143.875542,6.68432377 144.03304,6.29895646 144.34804,5.98395585 C144.663041,5.66895524 145.041706,5.51145729 145.484048,5.51145729 C145.939793,5.51145729 146.325161,5.66895524 146.640161,5.98395585 C146.955162,6.29895646 147.11266,6.68432377 147.11266,7.14006934 C147.11266,7.58241063 146.955162,7.9610759 146.640161,8.27607651 C146.325161,8.59107712 145.939793,8.74857507 145.484048,8.74857507 C145.041706,8.74857507 144.663041,8.59107712 144.34804,8.27607651 C144.03304,7.9610759 143.875542,7.58241063 143.875542,7.14006934 Z M150.243501,10.558144 L152.43509,10.558144 L152.43509,11.8650549 C152.729984,11.3556922 153.138809,10.9703249 153.661576,10.7089414 C154.184343,10.4475579 154.794229,10.3168682 155.491251,10.3168682 C156.174869,10.3168682 156.747894,10.4308028 157.210342,10.6586756 C157.672789,10.8865484 158.038051,11.1948423 158.306136,11.5835664 C158.534009,11.9320777 158.691507,12.3207961 158.778635,12.7497331 C158.865763,13.1786701 158.909326,13.7148333 158.909326,14.3582388 L158.909326,19.9276899 L156.717737,19.9276899 L156.717737,15.0820664 C156.717737,14.6799379 156.684227,14.3046237 156.617205,13.9561124 C156.550184,13.607601 156.4396,13.3093603 156.285451,13.0613811 C156.131302,12.8134018 155.923538,12.6156917 155.662155,12.4682446 C155.400771,12.3207975 155.075722,12.247075 154.686998,12.247075 C153.922954,12.247075 153.356632,12.5185077 152.988014,13.0613811 C152.619396,13.6042544 152.43509,14.2778095 152.43509,15.0820664 L152.43509,19.9276899 L150.243501,19.9276899 L150.243501,10.558144 Z M166.624409,12.2671813 C166.208876,12.2671813 165.833562,12.3476058 165.498455,12.5084572 C165.163348,12.6693086 164.87516,12.8837739 164.633883,13.1518595 C164.392606,13.4199451 164.2083,13.734941 164.080959,14.0968566 C163.953618,14.4587722 163.889949,14.8407885 163.889949,15.2429169 C163.889949,15.6450454 163.953618,16.0270617 164.080959,16.3889773 C164.2083,16.7508929 164.392606,17.0658888 164.633883,17.3339744 C164.87516,17.60206 165.163348,17.8165253 165.498455,17.9773767 C165.833562,18.1382281 166.208876,18.2186525 166.624409,18.2186525 C167.039941,18.2186525 167.418607,18.1382281 167.760416,17.9773767 C168.102225,17.8165253 168.393764,17.60206 168.635041,17.3339744 C168.876318,17.0658888 169.063975,16.7508929 169.198018,16.3889773 C169.332061,16.0270617 169.399081,15.6450454 169.399081,15.2429169 C169.399081,14.8407885 169.332061,14.4587722 169.198018,14.0968566 C169.063975,13.734941 168.876318,13.4199451 168.635041,13.1518595 C168.393764,12.8837739 168.102225,12.6693086 167.760416,12.5084572 C167.418607,12.3476058 167.039941,12.2671813 166.624409,12.2671813 Z M171.630883,20.3901353 C171.630883,21.1809879 171.513597,21.8578939 171.279022,22.4208738 C171.044447,22.9838536 170.712696,23.4462943 170.283759,23.8082099 C169.854822,24.1701255 169.332063,24.4382072 168.715466,24.6124628 C168.098869,24.7867185 167.395155,24.873845 166.604302,24.873845 C165.81345,24.873845 165.129842,24.7632613 164.553458,24.5420907 C163.977073,24.32092 163.494527,24.0293813 163.105802,23.6674657 C162.717078,23.3055501 162.418837,22.8933746 162.211071,22.4309269 C162.003305,21.9684792 161.886019,21.4892833 161.85921,20.9933249 L164.070906,20.9933249 C164.124523,21.5026876 164.359094,21.9483733 164.774627,22.3303953 C165.19016,22.7124173 165.793343,22.9034255 166.584196,22.9034255 C167.468879,22.9034255 168.159189,22.7057153 168.655147,22.310289 C169.151106,21.9148627 169.399081,21.2748178 169.399081,20.3901353 L169.399081,18.6609916 C169.104187,19.1301415 168.685309,19.4987537 168.142436,19.7668393 C167.599563,20.0349249 167.053346,20.1689657 166.503771,20.1689657 C165.793344,20.1689657 165.143246,20.038276 164.553458,19.7768925 C163.963669,19.515509 163.457665,19.1569498 163.03543,18.7012043 C162.613195,18.2454587 162.284795,17.7226996 162.05022,17.1329112 C161.815646,16.5431228 161.69836,15.913131 161.69836,15.2429169 C161.69836,14.5861072 161.815646,13.9594664 162.05022,13.3629759 C162.284795,12.7664854 162.613195,12.2403752 163.03543,11.7846296 C163.457665,11.3288841 163.963669,10.9703249 164.553458,10.7089414 C165.143246,10.4475579 165.793344,10.3168682 166.503771,10.3168682 C167.053346,10.3168682 167.599563,10.450909 168.142436,10.7189946 C168.685309,10.9870802 169.104187,11.3556924 169.399081,11.8248423 L169.399081,10.558144 L171.59067,10.558144 L171.630883,20.3901353 Z M179.446497,14.6397273 C179.7682,14.7603658 180.083196,14.8877046 180.391494,15.0217474 C180.699793,15.1557902 180.974576,15.3233412 181.215853,15.5244054 C181.457131,15.7254697 181.648139,15.9667431 181.788884,16.248233 C181.929629,16.5297229 182,16.8849311 182,17.3138681 C182,17.7964222 181.90282,18.2186507 181.708458,18.5805663 C181.514096,18.9424819 181.246015,19.2407227 180.904205,19.4752976 C180.562396,19.7098726 180.163625,19.8841256 179.707879,19.998062 C179.252134,20.1119984 178.769587,20.1689657 178.260224,20.1689657 C177.750861,20.1689657 177.268315,20.0952433 176.812569,19.9477962 C176.356823,19.8003491 175.95135,19.5825328 175.596137,19.2943407 C175.240923,19.0061487 174.959437,18.6509406 174.751671,18.2287057 C174.543905,17.8064708 174.440023,17.3205729 174.440023,16.7709974 L176.571293,16.7709974 C176.571293,17.3875943 176.742195,17.8198759 177.084004,18.0678551 C177.425814,18.3158343 177.858095,18.4398221 178.380862,18.4398221 C178.809799,18.4398221 179.171709,18.3593976 179.466603,18.1985462 C179.761498,18.0376948 179.908943,17.7562092 179.908943,17.3540807 C179.908943,17.1396122 179.848624,16.9653592 179.727986,16.8313164 C179.607347,16.6972735 179.426392,16.5732858 179.185115,16.4593494 C178.943838,16.345413 178.642246,16.2281273 178.280331,16.1074888 C177.918415,15.9868502 177.489484,15.8327033 176.993526,15.6450434 C176.671823,15.5244048 176.373582,15.3937151 176.098795,15.2529701 C175.824007,15.1122252 175.586084,14.9480252 175.38502,14.7603652 C175.183956,14.5727053 175.029809,14.3381339 174.922575,14.056644 C174.815341,13.7751541 174.761724,13.43335 174.761724,13.0312216 C174.761724,12.5888803 174.855553,12.200162 175.043213,11.8650549 C175.230873,11.5299479 175.48555,11.2451112 175.807253,11.0105362 C176.128956,10.7759613 176.500919,10.6017083 176.923154,10.4877719 C177.345389,10.3738355 177.797776,10.3168682 178.280331,10.3168682 C178.776289,10.3168682 179.242081,10.3972926 179.67772,10.558144 C180.113359,10.7189954 180.492024,10.9401627 180.813727,11.2216526 C181.13543,11.5031425 181.390107,11.8382445 181.577767,12.2269687 C181.765427,12.6156929 181.859256,13.0379214 181.859256,13.493667 L179.727986,13.493667 C179.727986,13.0513257 179.6107,12.6994686 179.376125,12.4380851 C179.14155,12.1767016 178.756183,12.0460118 178.220012,12.0460118 C177.844692,12.0460118 177.526345,12.1331383 177.264961,12.307394 C177.003578,12.4816497 176.872888,12.7363272 176.872888,13.0714342 C176.872888,13.2724984 176.926504,13.4366984 177.033739,13.5640391 C177.140973,13.6913798 177.301822,13.8053144 177.51629,13.9058466 C177.730759,14.0063787 177.99884,14.1136113 178.320543,14.2275477 C178.642246,14.3414841 179.01756,14.4788759 179.446497,14.6397273 Z" id="Brave-Wings-Copy-15" fill="#FFFFFF"></path>
            </g>
        </g>
    </g>
</svg>