<?xml version="1.0" encoding="UTF-8"?>
<svg width="22px" height="23px" viewBox="0 0 22 23" version="1.1" xmlns="http://www.w3.org/2000/svg" xmlns:xlink="http://www.w3.org/1999/xlink">
    <!-- Generator: Sketch 44.1 (41455) - http://www.bohemiancoding.com/sketch -->
    <title>files-32px-outline-3_pdf copy 2</title>
    <desc>Created with Sketch.</desc>
    <defs></defs>
    <g id="Page-1" stroke="none" stroke-width="1" fill="none" fill-rule="evenodd">
        <g id="BraveWings-DesktopHD" transform="translate(-207.000000, -810.000000)">
            <g id="files-32px-outline-3_pdf-copy-2" transform="translate(207.000000, 810.000000)">
                <polyline id="Shape" stroke="#27CF97" points="13.5 0.5 13.5 6.5 19.5 6.5"></polyline>
                <polyline id="Shape" stroke="#27CF97" stroke-linecap="square" points="19.5 9.5 19.5 6.5 13.8333333 0.5 2.5 0.5 2.5 9.5"></polyline>
                <polyline id="Shape" stroke="#27CF97" stroke-linecap="square" points="2.5 19.5 2.5 22.5 19.5 22.5 19.5 19.5"></polyline>
                <path d="M9,13.2719314 C9,13.7187883 8.86393245,14.0640868 8.59179735,14.307827 C8.31966224,14.5515672 7.93244873,14.6727368 7.43088058,14.6727368 L7.11676719,14.6727368 L7.11676719,16 L6,16 L6,12 L7.43088058,12 C7.95271411,12 8.34499397,12.1099632 8.60699638,12.3312905 C8.86899879,12.5526178 9,12.8649974 9,13.2719314 Z M7.11676719,13.7923306 L7.32014475,13.7923306 C7.4880579,13.7923306 7.6212304,13.7468044 7.72038601,13.6557521 C7.81954162,13.5646997 7.86875754,13.4386272 7.86875754,13.278235 C7.86875754,13.0078795 7.7145959,12.8734022 7.40482509,12.8734022 L7.11676719,12.8734022 L7.11676719,13.7923306 L7.11676719,13.7923306 Z" id="Shape" fill="#27CF97" fill-rule="nonzero"></path>
                <path d="M13,13.9149011 C13,14.5823849 12.8378713,15.0971809 12.512995,15.4578883 C12.1881188,15.8185957 11.7320545,16 11.1435644,16 L10,16 L10,12 L11.2233911,12 C11.7908416,12 12.2289604,12.1638942 12.5371287,12.4923831 C12.845297,12.820872 13,13.2950447 13,13.9149011 Z M12.0092822,13.9534232 C12.0092822,13.5871126 11.9449257,13.3153563 11.8168317,13.1381544 C11.6887376,12.9609525 11.4944307,12.8727018 11.2332921,12.8727018 L10.9554455,12.8727018 L10.9554455,15.1132901 L11.1683168,15.1132901 C11.4585396,15.1132901 11.6707921,15.0180354 11.8063119,14.8275258 C11.9418317,14.6370163 12.0092822,14.3456487 12.0092822,13.9534232 Z" id="Shape" fill="#27CF97" fill-rule="nonzero"></path>
                <polygon id="Shape" fill="#27CF97" fill-rule="nonzero" points="14.9007407 16 14 16 14 12 16 12 16 12.8670986 14.9007407 12.8670986 14.9007407 13.6305376 15.9146667 13.6305376 15.9146667 14.4976361 14.9007407 14.4976361"></polygon>
                <rect id="Rectangle-path" stroke="#27CF97" stroke-linecap="square" x="0.5" y="9.5" width="21" height="10"></rect>
            </g>
        </g>
    </g>
</svg>